<svg width="33" height="33" viewBox="0 0 33 33" fill="none" xmlns="http://www.w3.org/2000/svg">
<mask id="mask0_310_19" style="mask-type:alpha" maskUnits="userSpaceOnUse" x="0" y="0" width="33" height="33">
<rect width="33" height="33" fill="#D9D9D9"/>
</mask>
<g mask="url(#mask0_310_19)">
<path d="M16.5 18.425L20.4875 22.4125C20.7396 22.6646 21.0604 22.7906 21.45 22.7906C21.8396 22.7906 22.1604 22.6646 22.4125 22.4125C22.6646 22.1604 22.7906 21.8396 22.7906 21.45C22.7906 21.0604 22.6646 20.7396 22.4125 20.4875L18.425 16.5L22.4125 12.5125C22.6646 12.2604 22.7906 11.9396 22.7906 11.55C22.7906 11.1604 22.6646 10.8396 22.4125 10.5875C22.1604 10.3354 21.8396 10.2094 21.45 10.2094C21.0604 10.2094 20.7396 10.3354 20.4875 10.5875L16.5 14.575L12.5125 10.5875C12.2604 10.3354 11.9396 10.2094 11.55 10.2094C11.1604 10.2094 10.8396 10.3354 10.5875 10.5875C10.3354 10.8396 10.2094 11.1604 10.2094 11.55C10.2094 11.9396 10.3354 12.2604 10.5875 12.5125L14.575 16.5L10.5875 20.4875C10.3354 20.7396 10.2094 21.0604 10.2094 21.45C10.2094 21.8396 10.3354 22.1604 10.5875 22.4125C10.8396 22.6646 11.1604 22.7906 11.55 22.7906C11.9396 22.7906 12.2604 22.6646 12.5125 22.4125L16.5 18.425ZM16.5 30.25C14.5979 30.25 12.8104 29.8891 11.1375 29.1672C9.46458 28.4453 8.00937 27.4656 6.77187 26.2281C5.53437 24.9906 4.55469 23.5354 3.83281 21.8625C3.11094 20.1896 2.75 18.4021 2.75 16.5C2.75 14.5979 3.11094 12.8104 3.83281 11.1375C4.55469 9.46458 5.53437 8.00937 6.77187 6.77187C8.00937 5.53437 9.46458 4.55469 11.1375 3.83281C12.8104 3.11094 14.5979 2.75 16.5 2.75C18.4021 2.75 20.1896 3.11094 21.8625 3.83281C23.5354 4.55469 24.9906 5.53437 26.2281 6.77187C27.4656 8.00937 28.4453 9.46458 29.1672 11.1375C29.8891 12.8104 30.25 14.5979 30.25 16.5C30.25 18.4021 29.8891 20.1896 29.1672 21.8625C28.4453 23.5354 27.4656 24.9906 26.2281 26.2281C24.9906 27.4656 23.5354 28.4453 21.8625 29.1672C20.1896 29.8891 18.4021 30.25 16.5 30.25ZM16.5 27.5C19.5708 27.5 22.1719 26.4344 24.3031 24.3031C26.4344 22.1719 27.5 19.5708 27.5 16.5C27.5 13.4292 26.4344 10.8281 24.3031 8.69688C22.1719 6.56563 19.5708 5.5 16.5 5.5C13.4292 5.5 10.8281 6.56563 8.69688 8.69688C6.56563 10.8281 5.5 13.4292 5.5 16.5C5.5 19.5708 6.56563 22.1719 8.69688 24.3031C10.8281 26.4344 13.4292 27.5 16.5 27.5Z" fill="white"/>
</g>
</svg>
